<?xml version="1.0" standalone="no"?><!DOCTYPE svg PUBLIC "-//W3C//DTD SVG 1.1//EN" "http://www.w3.org/Graphics/SVG/1.1/DTD/svg11.dtd"><svg t="1765872670627" class="icon" viewBox="0 0 1024 1024" version="1.1" xmlns="http://www.w3.org/2000/svg" p-id="1632" xmlns:xlink="http://www.w3.org/1999/xlink" width="200" height="200"><path d="M512 1024c282.7696 0 512-229.2304 512-512S794.7696 0 512 0 0 229.2304 0 512s229.2304 512 512 512z" fill="#9391F7" p-id="1633"></path><path d="M416.8192 536.9728c43.9024-7.1264 73.7152-48.4976 66.592-92.4016-7.128-43.9024-48.4992-73.7152-92.4016-66.592-43.904 7.128-73.7168 48.4944-66.5936 92.4016 7.128 43.904 48.4992 73.7168 92.4032 66.592z m210.496 0c43.9024-7.1264 73.7152-48.4976 66.5888-92.4016-7.1248-43.9024-48.496-73.7152-92.3984-66.592-43.9024 7.128-73.72 48.4944-66.592 92.4016 7.128 43.904 48.4944 73.7168 92.4016 66.592z" fill="#FFFFFF" p-id="1634"></path><path d="M509.0304 125.0256c-218.672 0-395.9664 180.6672-395.904 403.4608h101.1408c0-166.9648 130.9232-302.3392 294.7632-302.3392s294.7664 135.3744 294.7664 302.3392h101.1424c0.0368-222.7936-177.2528-403.4608-395.9088-403.4608z" fill="#FFFFFF" p-id="1635"></path></svg>