<svg t="1765205041154" class="icon" viewBox="0 0 1024 1024" version="1.1"
  xmlns="http://www.w3.org/2000/svg" p-id="4657" width="200" height="200">
  <path
    d="M1024 512c0 282.770286-229.229714 512-512 512S0 794.770286 0 512 229.229714 0 512 0s512 229.229714 512 512z"
    fill="#FFFFFF" p-id="4658"></path>
  <path
    d="M789.76 342.546286h-90.221714c-10.422857 0-20.425143-4.48-27.428572-12.342857L635.483429 288.914286a28.745143 28.745143 0 0 0-21.485715-9.801143c-8.301714 0-15.963429 3.620571-21.485714 9.801143l-31.488 35.529143c-10.221714 11.483429-25.106286 18.285714-40.411429 18.285714H26.788571A502.418286 502.418286 0 0 0 0 468.918857h466.157714c8.283429 0 15.945143-3.401143 21.686857-9.362286l43.410286-45.312a28.342857 28.342857 0 0 1 20.644572-8.941714h1.700571c8.283429 0 15.945143 3.620571 21.485714 9.782857l36.589715 41.270857c7.021714 7.862857 17.005714 12.342857 27.446857 12.342858h380.416a508.105143 508.105143 0 0 0-26.806857-126.372572l-202.971429 0.219429zM282.112 734.445714c8.301714 0 15.963429-3.419429 21.705143-9.362285l43.410286-45.330286c5.522286-5.741714 12.982857-8.923429 20.845714-8.923429h1.700571c8.301714 0 16.164571 3.602286 21.485715 9.563429l36.589714 41.270857c7.021714 7.862857 17.024 12.342857 27.446857 12.342857h515.730286a510.610286 510.610286 0 0 0 41.910857-127.634286H517.851429c-10.422857 0-20.425143-4.48-27.446858-12.361142l-36.589714-40.850286a28.964571 28.964571 0 0 0-42.971428 0l-31.506286 35.529143c-10.203429 11.702857-25.088 18.304-40.630857 18.304H7.021714a510.610286 510.610286 0 0 0 41.910857 127.652571l233.179429-0.201143zM647.844571 204.452571c8.301714 0 15.963429-3.401143 21.705143-9.362285l43.392-45.312c5.321143-5.741714 12.982857-8.941714 20.845715-8.941715h1.718857c8.301714 0 15.945143 3.620571 21.485714 9.801143l36.589714 41.490286c7.021714 7.862857 17.005714 12.324571 27.446857 12.324571h98.084572C825.709714 80.201143 677.193143 0 509.970286 0S194.029714 80.201143 100.626286 204.452571H647.862857zM451.053714 861.019429h-134.034285c-10.422857 0-20.443429-4.461714-27.465143-12.324572l-36.571429-41.289143a28.964571 28.964571 0 0 0-42.971428 0L178.468571 842.934857c-10.221714 11.702857-25.106286 18.304-40.630857 18.304h-2.139428C229.138286 961.243429 362.112 1024 509.988571 1024c147.876571 0 280.630857-62.756571 374.253715-162.742857l-433.188572-0.237714z"
    fill="#000000" p-id="4659"></path>
</svg>