<?xml version="1.0" encoding="UTF-8"?>
<svg version="1.1" xmlns="http://www.w3.org/2000/svg" width="512" height="512">
<path d="M0 0 C168.96 0 337.92 0 512 0 C512 168.96 512 337.92 512 512 C343.04 512 174.08 512 0 512 C0 343.04 0 174.08 0 0 Z " fill="#D4F9D2" transform="translate(0,0)"/>
<path d="M0 0 C4.13000971 3.27215397 8.17006926 6.66262294 11.8359375 10.45458984 C11.8359375 10.78458984 11.8359375 11.11458984 11.8359375 11.45458984 C-10.6040625 11.45458984 -33.0440625 11.45458984 -56.1640625 11.45458984 C-45.80643703 27.86039132 -45.80643703 27.86039132 -35.19921875 44.09716797 C-34.66683594 44.90734375 -34.13445312 45.71751953 -33.5859375 46.55224609 C-33.11768555 47.25873291 -32.64943359 47.96521973 -32.16699219 48.69311523 C-31.1640625 50.45458984 -31.1640625 50.45458984 -31.1640625 52.45458984 C-7.0740625 52.45458984 17.0159375 52.45458984 41.8359375 52.45458984 C52.99083648 79.54505879 52.99083648 79.54505879 52.8359375 92.45458984 C38.63238192 92.7119818 24.42918974 92.90500074 10.22377777 93.02452374 C3.62720271 93.081895 -2.96780414 93.15968612 -9.56347656 93.28442383 C-15.93081523 93.40408746 -22.29664738 93.46974505 -28.6650238 93.49823952 C-31.09248068 93.51854027 -33.51985646 93.55818621 -35.94667053 93.61762047 C-54.97455749 94.06502389 -54.97455749 94.06502389 -60.37193298 90.09512329 C-62.46415562 87.26943719 -63.8274159 84.69348646 -65.1640625 81.45458984 C-66.11873013 79.89681425 -67.09481244 78.35163745 -68.10546875 76.82958984 C-68.9843771 75.3743908 -69.85809579 73.91604451 -70.7265625 72.45458984 C-74.47209114 66.15441603 -74.47209114 66.15441603 -78.4921875 60.02880859 C-79.14703125 59.07619141 -79.801875 58.12357422 -80.4765625 57.14208984 C-81.05019531 56.34158203 -81.62382812 55.54107422 -82.21484375 54.71630859 C-83.1640625 52.45458984 -83.1640625 52.45458984 -82.640625 50.14599609 C-80.66672616 46.54806937 -78.49066723 43.12587747 -76.2265625 39.70458984 C-75.24079319 38.19813977 -74.25511906 36.69162742 -73.26953125 35.18505859 C-72.76083496 34.41081543 -72.25213867 33.63657227 -71.72802734 32.83886719 C-69.149712 28.90820411 -66.59438847 24.96272018 -64.0390625 21.01708984 C-63.32955444 19.92605957 -63.32955444 19.92605957 -62.60571289 18.81298828 C-60.24596919 15.21502112 -60.24596919 15.21502112 -58.1640625 11.45458984 C-101.0640625 11.45458984 -143.9640625 11.45458984 -188.1640625 11.45458984 C-142.70250425 -43.09928006 -52.95582876 -40.68719675 0 0 Z " fill="#11100D" transform="translate(344.1640625,142.54541015625)"/>
<path d="M0 0 C30.69 0 61.38 0 93 0 C91.25484609 4.36288476 89.25352932 7.80965763 86.625 11.625 C85.734282 12.94828077 84.84503144 14.27255013 83.95703125 15.59765625 C82.42079227 17.88554941 80.88344533 20.17261894 79.34130859 22.45654297 C77.64717823 24.98051089 75.97800817 27.51957746 74.3125 30.0625 C73.50063232 31.25770264 73.50063232 31.25770264 72.67236328 32.47705078 C69.77357902 36.93489397 69.77357902 36.93489397 68.8671875 42.078125 C70.68335536 46.76258555 73.39559628 50.67902604 76.28184128 54.77030468 C79.02719716 58.73405854 81.30505013 62.48875182 83.04986572 66.99275208 C85.42040271 72.59542743 88.00509174 77.35380098 93 81 C102.81364666 84.30904502 113.87228667 83.40543362 124.10223293 83.12841392 C128.21803128 83.03717096 132.33341078 83.05459027 136.45001221 83.06001282 C144.22888487 83.05398705 152.00332074 82.95160516 159.78085256 82.81374437 C168.64169208 82.66143577 177.50205299 82.61782549 186.36401129 82.58290613 C204.5780707 82.50872318 222.7883204 82.29946147 241 82 C214.31479262 108.71515406 178.47480492 123.15637044 140.75 123.3125 C105.46993007 122.92151741 73.82963078 110.84912679 47 88 C45.79208008 86.99950067 44.58380603 85.99942855 43.375 85 C42.199375 84.01 42.199375 84.01 41 83 C42.3421208 79.35802946 43.97933072 76.26006597 46.09765625 73.01171875 C46.71914551 72.05185059 47.34063477 71.09198242 47.98095703 70.10302734 C48.9803833 68.56702881 48.9803833 68.56702881 50 67 C51.3961186 64.82002619 52.79061407 62.63901213 54.18359375 60.45703125 C55.60138891 58.24207638 57.01938899 56.02725267 58.4375 53.8125 C60.933125 49.914375 63.42875 46.01625 66 42 C47.85 41.67 29.7 41.34 11 41 C0 12.125 0 12.125 0 0 Z " fill="#100F0C" transform="translate(115,276)"/>
<path d="M0 0 C3.12712088 2.92137789 5.3996371 5.92752897 7.6796875 9.54296875 C8.70255859 11.15461914 8.70255859 11.15461914 9.74609375 12.79882812 C10.45595575 13.92824304 11.16559001 15.05780112 11.875 16.1875 C13.26743706 18.38982393 14.66065356 20.59165527 16.0546875 22.79296875 C17.05193848 24.37343994 17.05193848 24.37343994 18.06933594 25.98583984 C20.30042256 29.46902085 22.61423726 32.88871728 24.97314453 36.28637695 C26 38 26 38 26 40 C71.21 40 116.42 40 163 40 C161.87178584 53.53856992 161.87178584 53.53856992 159.75 59.9375 C159.35296875 61.16339844 158.9559375 62.38929688 158.546875 63.65234375 C157.25225446 67.39238103 155.82803521 71.07954019 154.40332031 74.77172852 C153.95321594 75.93906021 153.50311157 77.10639191 153.03936768 78.30909729 C152.69637634 79.19709518 152.35338501 80.08509308 152 81 C132.42478521 81.51524202 112.85095553 81.90249092 93.27035332 82.13986778 C84.17710868 82.25304975 75.08808918 82.40714351 65.99755859 82.65966797 C58.06842585 82.87982403 50.14235216 83.02107072 42.21024811 83.06994689 C38.01297613 83.09850547 33.82444884 83.16489724 29.63000107 83.32606125 C4.21492429 84.26504562 4.21492429 84.26504562 -2.7241745 78.88974762 C-7.2634173 73.76392193 -10.10192087 68.07870712 -12.72480392 61.80133438 C-14.7655581 57.31823179 -17.5752847 53.42678736 -20.4375 49.4375 C-25.07465159 42.86333904 -25.07465159 42.86333904 -24.79125977 39.5859375 C-23.92430222 36.75261005 -22.76972517 34.6743818 -21.15625 32.19140625 C-20.57319092 31.28543701 -19.99013184 30.37946777 -19.3894043 29.44604492 C-18.76590088 28.4944751 -18.14239746 27.54290527 -17.5 26.5625 C-16.86940674 25.58708252 -16.23881348 24.61166504 -15.58911133 23.60668945 C-14.3224229 21.64822783 -13.05268779 19.69173309 -11.77978516 17.73730469 C-10.21059595 15.323896 -8.65363973 12.90348483 -7.10546875 10.4765625 C-6.69039062 9.8261499 -6.2753125 9.1757373 -5.84765625 8.50561523 C-5.27337891 7.60564819 -5.27337891 7.60564819 -4.6875 6.6875 C-1.12828947 1.12828947 -1.12828947 1.12828947 0 0 Z " fill="#100F0C" transform="translate(234,236)"/>
<path d="M0 0 C44.22 0 88.44 0 134 0 C131.58169407 4.83661186 129.45302383 9.0715408 126.5390625 13.49609375 C125.90226563 14.46740234 125.26546875 15.43871094 124.609375 16.43945312 C123.62710938 17.92348633 123.62710938 17.92348633 122.625 19.4375 C121.97789062 20.42298828 121.33078125 21.40847656 120.6640625 22.42382812 C118.78208468 25.28663511 116.89419464 28.14526089 115 31 C114.45744379 32.10206535 114.45744379 32.10206535 113.90392685 33.22639465 C110.50971893 39.49828952 110.50971893 39.49828952 106.53722954 40.81842899 C103.42616451 41.11010208 100.42686398 41.11357005 97.30322266 41.02172852 C95.54626572 41.02369987 95.54626572 41.02369987 93.7538147 41.02571106 C89.88902786 41.01944938 86.02816532 40.94948918 82.1640625 40.87890625 C79.48214097 40.86211654 76.8004357 40.84886471 74.11849976 40.84031677 C67.7856506 40.8123845 61.45420599 40.73858995 55.12197435 40.64817137 C47.91056322 40.54744261 40.69908366 40.49805828 33.48714375 40.45291245 C18.65737869 40.35893338 3.82871385 40.20071399 -11 40 C-11.05206554 32.30100939 -11.05206554 32.30100939 -10.1171875 28.90625 C-9.91867188 28.184375 -9.72015625 27.4625 -9.515625 26.71875 C-9.19851562 25.62046875 -9.19851562 25.62046875 -8.875 24.5 C-8.68679687 23.79875 -8.49859375 23.0975 -8.3046875 22.375 C-6.11544009 14.6031717 -3.046385 7.6159625 0 0 Z " fill="#0F0E0B" transform="translate(126,195)"/>
</svg>
