<?xml version="1.0" encoding="UTF-8"?>
<svg version="1.1" xmlns="http://www.w3.org/2000/svg" viewBox="0 0 64 64" width="32" height="32">
    <!-- 外层圆角矩形（圆角半径为16，可以自行调整） -->
    <rect x="0" y="0" width="64" height="64" rx="16" fill="#6042DD" />
    <!-- VeChain 内部主图层（保持不变） -->
    <path d="M0 0 C10.78709677 -0.77419355 10.78709677 -0.77419355 14.9375 1.875 C22.62168326 13.51770191 22.62168326 13.51770191 21.8125 19.125 C21.544375 20.07375 21.27625 21.0225 21 22 C20.34 22 19.68 22 19 22 C18.54109375 20.92878906 18.0821875 19.85757813 17.609375 18.75390625 C16.99035761 17.35642761 16.3705233 15.95931062 15.75 14.5625 C15.44964844 13.85544922 15.14929687 13.14839844 14.83984375 12.41992188 C13.84053776 10.11225978 13.84053776 10.11225978 12 7 C9.94773149 6.24460318 9.94773149 6.24460318 8 6 C8.30292969 6.62567871 8.60585938 7.25135742 8.91796875 7.89599609 C10.28267165 10.7204062 11.64140247 13.54764837 13 16.375 C13.71542969 17.85226563 13.71542969 17.85226563 14.4453125 19.359375 C14.89648438 20.30039062 15.34765625 21.24140625 15.8125 22.2109375 C16.23144531 23.08024902 16.65039062 23.94956055 17.08203125 24.84521484 C18 27 18 27 18 29 C18.66 29 19.32 29 20 29 C20.226875 28.23171875 20.45375 27.4634375 20.6875 26.671875 C22.46439681 21.70079463 24.72181496 17.00815218 27 12.25 C27.67675781 10.81333984 27.67675781 10.81333984 28.3671875 9.34765625 C28.80289063 8.43371094 29.23859375 7.51976562 29.6875 6.578125 C30.08324219 5.74700195 30.47898437 4.91587891 30.88671875 4.05957031 C32 2 32 2 34 0 C35.32 0 36.64 0 38 0 C36.64888785 4.32623918 34.9843659 8.31578389 32.99609375 12.38671875 C32.42052734 13.57201172 31.84496094 14.75730469 31.25195312 15.97851562 C30.64738904 17.21496779 30.04256867 18.45129468 29.4375 19.6875 C28.24635449 22.12777974 27.05823578 24.5694838 25.87109375 27.01171875 C25.34443115 28.08897217 24.81776855 29.16622559 24.27514648 30.27612305 C22.93505688 33.00179195 22.93505688 33.00179195 22 36 C20.35 36 18.7 36 17 36 C12.75391502 27.60946505 8.57278926 19.19369948 4.5625 10.6875 C4.22089844 9.96506104 3.87929688 9.24262207 3.52734375 8.49829102 C2.21046282 5.6902164 0.98175136 2.94525409 0 0 Z " fill="#E5E7F5" transform="translate(13,14)"/>
    <path d="M0 0 C1.98 0 3.96 0 6 0 C5.67 1.65 5.34 3.3 5 5 C3.35 5 1.7 5 0 5 C0 3.35 0 1.7 0 0 Z " fill="#F0F5F7" transform="translate(29,44)"/>
</svg>
